<svg xmlns="http://www.w3.org/2000/svg" width="1280" height="640" viewBox="0 0 1280 640" role="img" aria-labelledby="title desc">
  <title id="title">OpenVibeCoding social preview source</title>
  <desc id="desc">Social preview artwork for OpenVibeCoding showing PM request, Command Tower, and Proof and Replay in one repo-backed command tower.</desc>
  <defs>
    <linearGradient id="bg" x1="0%" y1="0%" x2="100%" y2="100%">
      <stop offset="0%" stop-color="#0b1623"/>
      <stop offset="55%" stop-color="#132236"/>
      <stop offset="100%" stop-color="#1a3142"/>
    </linearGradient>
  </defs>

  <rect width="1280" height="640" fill="url(#bg)"/>
  <circle cx="1088" cy="112" r="118" fill="#e28a4e" opacity="0.16"/>
  <circle cx="170" cy="544" r="150" fill="#ecddcc" opacity="0.08"/>

  <rect x="86" y="68" rx="18" ry="18" width="352" height="48" fill="rgba(255,255,255,0.05)" stroke="rgba(255,255,255,0.16)"/>
  <text x="104" y="100" fill="#f0a264" font-family="'Trebuchet MS', Verdana, sans-serif" font-size="24" font-weight="700" letter-spacing="0.06em">REPO-BACKED COMMAND TOWER</text>

  <text x="86" y="176" fill="#f6f1e8" font-family="Georgia, 'Times New Roman', serif" font-size="70" font-weight="700">OpenVibeCoding</text>
  <text x="86" y="226" fill="#dce8ef" font-family="'Trebuchet MS', Verdana, sans-serif" font-size="34" font-weight="700">
    The open command tower for AI engineering
  </text>
  <text x="86" y="274" fill="#dce8ef" font-family="'Trebuchet MS', Verdana, sans-serif" font-size="34" font-weight="700">
    One request. One live board. One proof pack you can inspect.
  </text>

  <rect x="86" y="322" rx="28" ry="28" width="1108" height="216" fill="#f6f1e8" opacity="0.97"/>

  <text x="126" y="392" fill="#16232d" font-family="'Trebuchet MS', Verdana, sans-serif" font-size="28" font-weight="700">PM request</text>
  <text x="126" y="428" fill="#405360" font-family="'Trebuchet MS', Verdana, sans-serif" font-size="24">Describe the task.</text>

  <text x="456" y="392" fill="#16232d" font-family="'Trebuchet MS', Verdana, sans-serif" font-size="28" font-weight="700">Command Tower</text>
  <text x="456" y="428" fill="#405360" font-family="'Trebuchet MS', Verdana, sans-serif" font-size="24">Watch the live board.</text>

  <text x="818" y="392" fill="#16232d" font-family="'Trebuchet MS', Verdana, sans-serif" font-size="28" font-weight="700">Proof &amp; Replay</text>
  <text x="818" y="428" fill="#405360" font-family="'Trebuchet MS', Verdana, sans-serif" font-size="24">Inspect evidence and reruns.</text>

  <g stroke="#305971" stroke-width="6" fill="none" stroke-linecap="round">
    <path d="M300 408 C360 408, 390 408, 432 408"/>
    <path d="M642 408 C706 408, 742 408, 790 408"/>
  </g>
  <g fill="#305971">
    <polygon points="424,395 448,408 424,421"/>
    <polygon points="782,395 806,408 782,421"/>
  </g>

  <rect x="126" y="466" rx="16" ry="16" width="244" height="58" fill="#203847"/>
  <rect x="470" y="466" rx="16" ry="16" width="278" height="58" fill="#d48452"/>
  <rect x="814" y="466" rx="16" ry="16" width="284" height="58" fill="#203847"/>

  <text x="150" y="502" fill="#f6f1e8" font-family="'Trebuchet MS', Verdana, sans-serif" font-size="21" font-weight="700">One proven workflow</text>
  <text x="505" y="502" fill="#16232d" font-family="'Trebuchet MS', Verdana, sans-serif" font-size="21" font-weight="700">Read-only MCP</text>
  <text x="848" y="502" fill="#f6f1e8" font-family="'Trebuchet MS', Verdana, sans-serif" font-size="21" font-weight="700">macOS desktop shell</text>

  <text x="86" y="586" fill="#d9e7ee" font-family="'Trebuchet MS', Verdana, sans-serif" font-size="26" font-weight="700">
    <tspan x="86" dy="0">Plan, delegate, track, and prove AI coding work in one visible loop.</tspan>
  </text>
</svg>
